<svg xmlns="http://www.w3.org/2000/svg" xmlns:xlink="http://www.w3.org/1999/xlink" zoomAndPan="magnify" preserveAspectRatio="xMidYMid meet" version="1.0" viewBox="58.16 148.59 256.4 69.1"><defs><clipPath id="ef90e1b46d"><path d="M 159.386719 165.421875 L 190.136719 165.421875 L 190.136719 193.171875 L 159.386719 193.171875 Z M 159.386719 165.421875 " clip-rule="nonzero"/></clipPath><clipPath id="8eef8c75fe"><path d="M 180.289062 183.589844 L 184.589844 183.589844 L 184.589844 187.234375 L 180.289062 187.234375 Z M 180.289062 183.589844 " clip-rule="nonzero"/></clipPath><clipPath id="3eab184888"><path d="M 184.574219 184.875 C 182.625 187.875 180.824219 187.351562 180.449219 186.75 C 180.074219 186.074219 180.449219 184.273438 181.050781 183.75 C 181.574219 183.300781 183.976562 183.976562 183.976562 183.976562 " clip-rule="nonzero"/></clipPath><clipPath id="285ed8cbc7"><path d="M 177.414062 183.335938 L 184.261719 183.335938 L 184.261719 189.355469 L 177.414062 189.355469 Z M 177.414062 183.335938 " clip-rule="nonzero"/></clipPath><clipPath id="3c1cee8a19"><path d="M 182.550781 187.726562 C 180.976562 188.175781 181.574219 186.074219 181.199219 185.625 C 180.976562 185.324219 180.148438 185.476562 180.148438 185.398438 C 180.148438 185.175781 181.574219 184.5 182.175781 184.574219 C 182.851562 184.648438 183.75 185.175781 184.050781 185.773438 C 184.351562 186.449219 184.050781 188.023438 183.601562 188.625 C 183.148438 189.074219 182.101562 189.300781 181.425781 189.226562 C 180.824219 189.074219 180 188.398438 179.773438 187.800781 C 179.550781 187.199219 179.699219 186.148438 180 185.550781 C 180.226562 185.175781 180.675781 184.800781 181.199219 184.648438 C 181.800781 184.5 182.851562 184.574219 183.375 185.023438 C 183.898438 185.550781 184.5 187.125 184.125 187.800781 C 183.601562 188.699219 180.074219 189.675781 178.949219 189.226562 C 178.125 188.851562 177.449219 187.648438 177.449219 186.824219 C 177.523438 185.925781 178.5 184.800781 179.25 184.199219 C 179.925781 183.75 180.898438 183.375 181.574219 183.375 C 182.101562 183.449219 182.699219 183.601562 183.074219 183.976562 C 183.449219 184.425781 183.898438 185.398438 183.75 186 C 183.675781 186.675781 182.550781 187.726562 182.550781 187.726562 " clip-rule="nonzero"/></clipPath><clipPath id="57a10ce29f"><path d="M 177.757812 182.332031 L 185.648438 182.332031 L 185.648438 190.011719 L 177.757812 190.011719 Z M 177.757812 182.332031 " clip-rule="nonzero"/></clipPath><clipPath id="6fef612023"><path d="M 184.199219 186.75 C 180.824219 189.898438 180.375 190.125 179.925781 189.976562 C 179.25 189.824219 177.976562 188.773438 177.824219 188.023438 C 177.75 187.273438 178.5 185.851562 179.175781 185.550781 C 179.851562 185.25 181.425781 185.625 181.949219 186.148438 C 182.398438 186.601562 182.550781 187.648438 182.398438 188.25 C 182.25 188.851562 181.574219 189.675781 180.898438 189.824219 C 180.226562 190.050781 178.726562 189.449219 178.199219 189 C 177.898438 188.625 177.675781 188.101562 177.824219 187.5 C 178.050781 186.375 180.226562 183.75 181.351562 182.925781 C 182.101562 182.476562 182.851562 182.25 183.523438 182.398438 C 184.125 182.476562 184.949219 183 185.324219 183.523438 C 185.550781 183.976562 185.699219 184.648438 185.550781 185.101562 C 185.398438 185.699219 184.199219 186.75 184.199219 186.75 " clip-rule="nonzero"/></clipPath><clipPath id="ef346a2825"><path d="M 177.941406 182.222656 L 182.652344 182.222656 L 182.652344 188.75 L 177.941406 188.75 Z M 177.941406 182.222656 " clip-rule="nonzero"/></clipPath><clipPath id="8a7da403b0"><path d="M 182.324219 183.601562 C 179.773438 186.074219 179.773438 188.476562 179.175781 188.699219 C 178.875 188.851562 178.125 188.476562 178.050781 188.25 C 177.976562 188.023438 178.5 187.351562 178.726562 187.351562 C 178.949219 187.351562 179.625 188.101562 179.550781 188.25 C 179.476562 188.476562 178.351562 188.625 178.050781 188.324219 C 177.75 187.875 178.199219 185.925781 178.726562 184.949219 C 179.324219 183.898438 180.976562 182.398438 181.726562 182.25 C 182.101562 182.25 182.550781 182.476562 182.625 182.699219 C 182.699219 182.925781 182.324219 183.601562 182.324219 183.601562 " clip-rule="nonzero"/></clipPath><clipPath id="ac08c6d40e"><path d="M 177.539062 181.484375 L 183 181.484375 L 183 188.117188 L 177.539062 188.117188 Z M 177.539062 181.484375 " clip-rule="nonzero"/></clipPath><clipPath id="ae2f5c5779"><path d="M 182.476562 182.925781 C 179.175781 185.324219 179.324219 187.425781 178.875 187.875 C 178.648438 188.101562 178.273438 188.175781 178.050781 188.023438 C 177.824219 187.949219 177.523438 187.351562 177.601562 187.125 C 177.75 186.898438 178.425781 186.523438 178.648438 186.675781 C 178.875 186.75 179.023438 187.726562 178.875 187.875 C 178.726562 188.101562 177.976562 188.023438 177.75 187.800781 C 177.601562 187.648438 177.601562 187.125 177.75 186.898438 C 177.898438 186.75 178.800781 186.75 178.949219 186.898438 C 179.101562 187.125 178.800781 188.023438 178.574219 188.101562 C 178.351562 188.101562 177.75 187.726562 177.601562 187.273438 C 177.375 186.523438 177.976562 184.273438 178.800781 183.300781 C 179.550781 182.324219 181.425781 181.425781 182.175781 181.5 C 182.550781 181.5 182.925781 181.875 183 182.101562 C 183 182.324219 182.476562 182.925781 182.476562 182.925781 " clip-rule="nonzero"/></clipPath><clipPath id="5989be65c8"><path d="M 177.378906 182.597656 L 182.503906 182.597656 L 182.503906 189.617188 L 177.378906 189.617188 Z M 177.378906 182.597656 " clip-rule="nonzero"/></clipPath><clipPath id="688609d8de"><path d="M 182.25 183.898438 C 179.476562 186.675781 179.324219 188.851562 178.726562 189.375 C 178.5 189.601562 178.050781 189.675781 177.898438 189.523438 C 177.675781 189.375 177.449219 188.699219 177.523438 188.476562 C 177.675781 188.25 178.574219 188.175781 178.800781 188.398438 C 178.949219 188.550781 178.800781 189.375 178.648438 189.449219 C 178.425781 189.601562 177.601562 189.226562 177.449219 188.773438 C 177.226562 188.101562 178.050781 186.300781 178.726562 185.25 C 179.398438 184.199219 180.824219 182.773438 181.5 182.625 C 181.875 182.550781 182.324219 182.699219 182.476562 182.925781 C 182.550781 183.148438 182.25 183.898438 182.25 183.898438 " clip-rule="nonzero"/></clipPath><clipPath id="182a3cfdaa"><path d="M 177.203125 184.179688 L 179.179688 184.179688 L 179.179688 188.097656 L 177.203125 188.097656 Z M 177.203125 184.179688 " clip-rule="nonzero"/></clipPath><clipPath id="9ff1e177e0"><path d="M 179.175781 185.175781 C 178.199219 188.101562 177.75 188.175781 177.523438 188.023438 C 177.300781 187.875 177.148438 187.125 177.226562 186.976562 C 177.449219 186.75 178.574219 186.898438 178.648438 187.125 C 178.648438 187.273438 177.824219 188.101562 177.601562 188.023438 C 177.300781 187.875 177.449219 185.324219 177.824219 184.726562 C 177.976562 184.425781 178.425781 184.125 178.648438 184.199219 C 178.875 184.273438 179.175781 185.175781 179.175781 185.175781 " clip-rule="nonzero"/></clipPath><clipPath id="3f62701625"><path d="M 177.78125 183.828125 L 179.257812 183.828125 L 179.257812 185.050781 L 177.78125 185.050781 Z M 177.78125 183.828125 " clip-rule="nonzero"/></clipPath><clipPath id="972216e225"><path d="M 179.25 184.273438 C 178.574219 185.25 177.976562 185.101562 177.824219 184.875 C 177.75 184.648438 177.824219 184.050781 178.050781 183.898438 C 178.199219 183.75 179.023438 183.976562 179.023438 183.976562 " clip-rule="nonzero"/></clipPath><clipPath id="fb502396be"><path d="M 175.6875 182.597656 L 180.703125 182.597656 L 180.703125 190.542969 L 175.6875 190.542969 Z M 175.6875 182.597656 " clip-rule="nonzero"/></clipPath><clipPath id="59fbfc789f"><path d="M 180.601562 183.75 C 176.925781 188.324219 177.375 190.351562 176.925781 190.5 C 176.699219 190.648438 175.800781 190.050781 175.800781 189.824219 C 175.800781 189.601562 176.699219 189.148438 176.925781 189.226562 C 177.148438 189.375 177.226562 190.351562 177 190.5 C 176.851562 190.574219 176.023438 190.273438 175.800781 189.898438 C 175.425781 189.148438 176.101562 186.898438 176.773438 185.699219 C 177.449219 184.425781 178.949219 182.773438 179.699219 182.625 C 180.074219 182.550781 180.523438 182.699219 180.675781 182.925781 C 180.75 183.148438 180.601562 183.75 180.601562 183.75 " clip-rule="nonzero"/></clipPath><clipPath id="2dc1f3d25e"><path d="M 177.117188 170.742188 L 184.558594 170.742188 L 184.558594 177.257812 L 177.117188 177.257812 Z M 177.117188 170.742188 " clip-rule="nonzero"/></clipPath><clipPath id="7930e7d5a5"><path d="M 179.25 171.449219 C 181.199219 174.523438 184.425781 175.648438 184.5 176.324219 C 184.574219 176.625 184.199219 177 183.898438 177.148438 C 183.523438 177.300781 182.773438 177.148438 182.175781 177 C 181.273438 176.699219 180 175.875 179.175781 175.125 C 178.351562 174.375 177.148438 173.023438 177.148438 172.351562 C 177.226562 171.976562 177.75 171.449219 178.050781 171.449219 C 178.273438 171.449219 178.726562 172.125 178.648438 172.351562 C 178.574219 172.574219 177.675781 172.949219 177.449219 172.800781 C 177.300781 172.726562 177.148438 171.976562 177.300781 171.75 C 177.449219 171.523438 177.824219 171.375 178.199219 171.523438 C 178.949219 171.75 180 174 181.125 174.824219 C 182.101562 175.574219 184.5 175.875 184.5 176.324219 C 184.574219 176.625 183.898438 177.074219 183.375 177.148438 C 182.625 177.148438 181.199219 176.175781 180.300781 175.351562 C 179.324219 174.523438 177.898438 172.875 177.75 171.976562 C 177.675781 171.449219 177.976562 170.851562 178.199219 170.773438 C 178.5 170.699219 179.25 171.449219 179.25 171.449219 " clip-rule="nonzero"/></clipPath><clipPath id="52fb05ce70"><path d="M 177.847656 171.589844 L 186.042969 171.589844 L 186.042969 176.792969 L 177.847656 176.792969 Z M 177.847656 171.589844 " clip-rule="nonzero"/></clipPath><clipPath id="e78c378310"><path d="M 179.398438 172.273438 C 180.976562 174.75 185.851562 175.199219 186 175.875 C 186.074219 176.101562 185.324219 176.699219 185.101562 176.699219 C 184.875 176.625 184.5 175.726562 184.648438 175.5 C 184.800781 175.351562 185.773438 175.351562 185.851562 175.574219 C 186 175.726562 185.625 176.476562 185.175781 176.699219 C 184.199219 177.074219 180.824219 175.949219 179.625 175.351562 C 178.949219 174.976562 178.5 174.675781 178.199219 174.226562 C 177.898438 173.699219 177.824219 172.875 177.898438 172.425781 C 177.976562 172.125 178.199219 171.675781 178.5 171.601562 C 178.726562 171.601562 179.398438 172.273438 179.398438 172.273438 " clip-rule="nonzero"/></clipPath></defs><path fill="#000000" d="M 61.957031 166.351562 L 61.957031 156.570312 L 71.019531 156.570312 L 71.019531 166.351562 L 76.550781 166.351562 L 76.550781 173.257812 L 71.019531 173.257812 L 71.019531 181.601562 C 71.019531 184.03125 71.699219 185.242188 73.066406 185.242188 C 73.410156 185.242188 73.769531 185.175781 74.144531 185.039062 C 74.519531 184.90625 74.808594 184.769531 75.019531 184.632812 L 75.316406 184.429688 L 77.566406 191.742188 C 75.628906 192.835938 73.410156 193.382812 70.910156 193.382812 C 69.210938 193.382812 67.746094 193.085938 66.519531 192.492188 C 65.289062 191.890625 64.355469 191.085938 63.722656 190.085938 C 63.085938 189.078125 62.632812 188.019531 62.363281 186.914062 C 62.089844 185.800781 61.957031 184.613281 61.957031 183.351562 L 61.957031 173.257812 L 58.160156 173.257812 L 58.160156 166.351562 Z M 61.957031 166.351562 " fill-opacity="1" fill-rule="nonzero"/><path fill="#000000" d="M 75.835938 192.617188 L 75.835938 148.585938 L 84.898438 148.585938 L 84.898438 169.117188 L 84.992188 169.117188 C 87.34375 166.765625 89.855469 165.585938 92.523438 165.585938 C 93.8125 165.585938 95.101562 165.757812 96.382812 166.101562 C 97.664062 166.4375 98.890625 166.960938 100.070312 167.679688 C 101.246094 168.398438 102.199219 169.414062 102.929688 170.726562 C 103.667969 172.039062 104.039062 173.566406 104.039062 175.304688 L 104.039062 192.617188 L 94.976562 192.617188 L 94.976562 177.773438 C 94.976562 176.410156 94.539062 175.21875 93.664062 174.195312 C 92.796875 173.164062 91.667969 172.648438 90.273438 172.648438 C 88.90625 172.648438 87.667969 173.179688 86.554688 174.242188 C 85.449219 175.296875 84.898438 176.472656 84.898438 177.773438 L 84.898438 192.617188 Z M 75.835938 192.617188 " fill-opacity="1" fill-rule="nonzero"/><path fill="#000000" d="M 113.410156 166.351562 L 113.410156 178.835938 C 113.410156 181.441406 113.800781 183.289062 114.582031 184.382812 C 115.371094 185.46875 116.707031 186.007812 118.582031 186.007812 C 120.457031 186.007812 121.785156 185.46875 122.566406 184.382812 C 123.355469 183.289062 123.753906 181.441406 123.753906 178.835938 L 123.753906 166.351562 L 132.816406 166.351562 L 132.816406 181.039062 C 132.816406 185.414062 131.679688 188.566406 129.410156 190.492188 C 127.136719 192.421875 123.527344 193.382812 118.582031 193.382812 C 113.632812 193.382812 110.023438 192.421875 107.753906 190.492188 C 105.480469 188.566406 104.347656 185.414062 104.347656 181.039062 L 104.347656 166.351562 Z M 113.410156 166.351562 " fill-opacity="1" fill-rule="nonzero"/><path fill="#000000" d="M 153.542969 166.351562 L 163.996094 166.351562 L 143.355469 205.929688 L 132.917969 205.929688 L 141.980469 188.523438 L 129.527344 166.351562 L 139.980469 166.351562 L 147.308594 179.820312 Z M 153.542969 166.351562 " fill-opacity="1" fill-rule="nonzero"/><path fill="#000000" d="M 163.011719 189.367188 C 160.550781 186.691406 159.324219 183.410156 159.324219 179.523438 C 159.324219 175.628906 160.550781 172.332031 163.011719 169.632812 C 165.46875 166.9375 168.59375 165.585938 172.386719 165.585938 C 175.863281 165.585938 178.734375 166.675781 180.996094 168.851562 L 180.996094 148.585938 L 190.058594 148.585938 L 190.058594 192.617188 L 181.089844 192.617188 L 181.089844 189.648438 L 180.996094 189.648438 C 178.734375 192.140625 175.863281 193.382812 172.386719 193.382812 C 168.59375 193.382812 165.46875 192.046875 163.011719 189.367188 Z M 170.714844 175.054688 C 169.535156 176.210938 168.949219 177.695312 168.949219 179.507812 C 168.949219 181.320312 169.511719 182.800781 170.636719 183.945312 C 171.769531 185.082031 173.261719 185.648438 175.105469 185.648438 C 176.875 185.648438 178.332031 185.070312 179.480469 183.914062 C 180.625 182.75 181.199219 181.28125 181.199219 179.507812 C 181.199219 177.695312 180.609375 176.210938 179.433594 175.054688 C 178.253906 173.898438 176.8125 173.320312 175.105469 173.320312 C 173.363281 173.320312 171.902344 173.898438 170.714844 175.054688 Z M 170.714844 175.054688 " fill-opacity="1" fill-rule="nonzero"/><path fill="#000000" d="M 199.933594 166.351562 L 199.933594 178.835938 C 199.933594 181.441406 200.324219 183.289062 201.105469 184.382812 C 201.894531 185.46875 203.230469 186.007812 205.105469 186.007812 C 206.980469 186.007812 208.308594 185.46875 209.089844 184.382812 C 209.878906 183.289062 210.277344 181.441406 210.277344 178.835938 L 210.277344 166.351562 L 219.339844 166.351562 L 219.339844 181.039062 C 219.339844 185.414062 218.203125 188.566406 215.933594 190.492188 C 213.660156 192.421875 210.050781 193.382812 205.105469 193.382812 C 200.15625 193.382812 196.546875 192.421875 194.277344 190.492188 C 192.003906 188.566406 190.871094 185.414062 190.871094 181.039062 L 190.871094 166.351562 Z M 199.933594 166.351562 " fill-opacity="1" fill-rule="nonzero"/><path fill="#000000" d="M 240.0625 166.351562 L 250.515625 166.351562 L 229.875 205.929688 L 219.4375 205.929688 L 228.5 188.523438 L 216.046875 166.351562 L 226.5 166.351562 L 233.828125 179.820312 Z M 240.0625 166.351562 " fill-opacity="1" fill-rule="nonzero"/><path fill="#000000" d="M 274.316406 180.742188 L 255.269531 180.742188 C 255.269531 182.585938 255.867188 183.953125 257.066406 184.835938 C 258.261719 185.722656 259.558594 186.164062 260.957031 186.164062 C 262.425781 186.164062 263.585938 185.972656 264.441406 185.585938 C 265.292969 185.191406 266.269531 184.410156 267.363281 183.242188 L 273.910156 186.523438 C 271.179688 191.097656 266.636719 193.382812 260.285156 193.382812 C 256.324219 193.382812 252.929688 192.03125 250.097656 189.320312 C 247.261719 186.601562 245.847656 183.332031 245.847656 179.507812 C 245.847656 175.6875 247.261719 172.410156 250.097656 169.679688 C 252.929688 166.953125 256.324219 165.585938 260.285156 165.585938 C 264.449219 165.585938 267.839844 166.789062 270.457031 169.195312 C 273.070312 171.601562 274.378906 175.039062 274.378906 179.507812 C 274.378906 180.125 274.355469 180.535156 274.316406 180.742188 Z M 255.535156 175.726562 L 265.519531 175.726562 C 265.308594 174.363281 264.769531 173.316406 263.894531 172.585938 C 263.027344 171.847656 261.914062 171.476562 260.550781 171.476562 C 259.050781 171.476562 257.851562 171.867188 256.957031 172.648438 C 256.070312 173.429688 255.597656 174.457031 255.535156 175.726562 Z M 255.535156 175.726562 " fill-opacity="1" fill-rule="nonzero"/><path fill="#000000" d="M 273.8125 192.617188 L 273.8125 166.351562 L 282.875 166.351562 L 282.875 169.117188 L 282.96875 169.117188 C 285.320312 166.765625 287.832031 165.585938 290.5 165.585938 C 291.789062 165.585938 293.078125 165.757812 294.359375 166.101562 C 295.640625 166.4375 296.867188 166.960938 298.046875 167.679688 C 299.222656 168.398438 300.175781 169.414062 300.90625 170.726562 C 301.644531 172.039062 302.015625 173.566406 302.015625 175.304688 L 302.015625 192.617188 L 292.953125 192.617188 L 292.953125 177.773438 C 292.953125 176.410156 292.515625 175.21875 291.640625 174.195312 C 290.773438 173.164062 289.644531 172.648438 288.25 172.648438 C 286.882812 172.648438 285.644531 173.179688 284.53125 174.242188 C 283.425781 175.296875 282.875 176.472656 282.875 177.773438 L 282.875 192.617188 Z M 273.8125 192.617188 " fill-opacity="1" fill-rule="nonzero"/><path fill="#000000" d="M 308.667969 181.664062 C 310.300781 181.664062 311.691406 182.238281 312.839844 183.382812 C 313.984375 184.519531 314.558594 185.910156 314.558594 187.554688 C 314.558594 189.160156 313.984375 190.535156 312.839844 191.679688 C 311.691406 192.8125 310.300781 193.382812 308.667969 193.382812 C 307.0625 193.382812 305.6875 192.8125 304.542969 191.679688 C 303.40625 190.535156 302.839844 189.160156 302.839844 187.554688 C 302.839844 185.910156 303.40625 184.519531 304.542969 183.382812 C 305.6875 182.238281 307.0625 181.664062 308.667969 181.664062 Z M 308.667969 181.664062 " fill-opacity="1" fill-rule="nonzero"/><path fill="#000000" d="M 87.488281 214.777344 C 87.425781 214.683594 87.394531 214.589844 87.394531 214.496094 C 87.394531 214.363281 87.464844 214.246094 87.613281 214.152344 C 87.683594 214.101562 87.761719 214.074219 87.847656 214.074219 C 87.972656 214.074219 88.085938 214.128906 88.191406 214.230469 C 88.398438 214.460938 88.617188 214.636719 88.847656 214.761719 C 89.085938 214.878906 89.371094 214.933594 89.707031 214.933594 C 89.964844 214.925781 90.195312 214.863281 90.394531 214.746094 C 90.589844 214.632812 90.691406 214.449219 90.691406 214.199219 C 90.691406 213.960938 90.585938 213.785156 90.378906 213.667969 C 90.179688 213.542969 89.886719 213.429688 89.503906 213.324219 C 89.117188 213.222656 88.792969 213.113281 88.535156 212.996094 C 88.285156 212.882812 88.070312 212.722656 87.894531 212.511719 C 87.714844 212.292969 87.628906 212.007812 87.628906 211.652344 C 87.628906 211.339844 87.714844 211.070312 87.894531 210.839844 C 88.070312 210.601562 88.304688 210.417969 88.597656 210.292969 C 88.886719 210.160156 89.207031 210.089844 89.550781 210.089844 C 89.882812 210.089844 90.210938 210.152344 90.535156 210.277344 C 90.855469 210.402344 91.121094 210.589844 91.332031 210.839844 C 91.414062 210.945312 91.457031 211.050781 91.457031 211.152344 C 91.457031 211.257812 91.402344 211.363281 91.300781 211.464844 C 91.226562 211.527344 91.136719 211.558594 91.035156 211.558594 C 90.910156 211.558594 90.808594 211.519531 90.738281 211.433594 C 90.589844 211.269531 90.414062 211.144531 90.207031 211.058594 C 89.996094 210.964844 89.761719 210.917969 89.503906 210.917969 C 89.242188 210.917969 89.019531 210.972656 88.832031 211.074219 C 88.652344 211.179688 88.566406 211.363281 88.566406 211.621094 C 88.574219 211.863281 88.679688 212.039062 88.878906 212.152344 C 89.085938 212.269531 89.398438 212.382812 89.816406 212.496094 C 90.179688 212.589844 90.480469 212.695312 90.722656 212.808594 C 90.960938 212.914062 91.164062 213.074219 91.332031 213.292969 C 91.496094 213.511719 91.582031 213.800781 91.582031 214.152344 C 91.582031 214.476562 91.488281 214.757812 91.300781 214.996094 C 91.113281 215.226562 90.867188 215.410156 90.566406 215.542969 C 90.273438 215.667969 89.960938 215.730469 89.628906 215.730469 C 89.191406 215.730469 88.785156 215.65625 88.410156 215.511719 C 88.042969 215.355469 87.738281 215.113281 87.488281 214.777344 Z M 87.488281 214.777344 " fill-opacity="1" fill-rule="nonzero"/><path fill="#000000" d="M 103.839844 214.761719 C 103.941406 214.878906 103.996094 214.996094 103.996094 215.121094 C 103.996094 215.269531 103.941406 215.386719 103.839844 215.480469 C 103.734375 215.566406 103.625 215.605469 103.511719 215.605469 C 103.355469 215.605469 103.230469 215.554688 103.136719 215.449219 L 101.105469 213.292969 L 100.496094 213.839844 L 100.496094 215.121094 C 100.496094 215.269531 100.449219 215.386719 100.355469 215.480469 C 100.261719 215.574219 100.144531 215.621094 100.011719 215.621094 C 99.863281 215.621094 99.746094 215.574219 99.652344 215.480469 C 99.558594 215.386719 99.511719 215.269531 99.511719 215.121094 L 99.511719 208.480469 C 99.511719 208.347656 99.558594 208.230469 99.652344 208.136719 C 99.746094 208.042969 99.863281 207.996094 100.011719 207.996094 C 100.144531 207.996094 100.261719 208.042969 100.355469 208.136719 C 100.449219 208.230469 100.496094 208.347656 100.496094 208.480469 L 100.496094 212.667969 L 103.027344 210.355469 C 103.140625 210.253906 103.261719 210.199219 103.386719 210.199219 C 103.5 210.199219 103.605469 210.253906 103.699219 210.355469 C 103.792969 210.449219 103.839844 210.554688 103.839844 210.667969 C 103.839844 210.804688 103.777344 210.925781 103.652344 211.027344 L 101.871094 212.621094 Z M 103.839844 214.761719 " fill-opacity="1" fill-rule="nonzero"/><path fill="#000000" d="M 112.792969 215.121094 C 112.792969 215.269531 112.746094 215.386719 112.652344 215.480469 C 112.558594 215.574219 112.441406 215.621094 112.308594 215.621094 C 112.160156 215.621094 112.042969 215.574219 111.949219 215.480469 C 111.863281 215.386719 111.824219 215.269531 111.824219 215.121094 L 111.824219 210.667969 C 111.824219 210.523438 111.863281 210.402344 111.949219 210.308594 C 112.042969 210.214844 112.160156 210.167969 112.308594 210.167969 C 112.441406 210.167969 112.558594 210.214844 112.652344 210.308594 C 112.746094 210.402344 112.792969 210.523438 112.792969 210.667969 Z M 112.292969 209.480469 C 112.09375 209.480469 111.953125 209.445312 111.871094 209.371094 C 111.785156 209.300781 111.746094 209.183594 111.746094 209.027344 L 111.746094 208.871094 C 111.746094 208.707031 111.792969 208.589844 111.886719 208.527344 C 111.980469 208.457031 112.121094 208.417969 112.308594 208.417969 C 112.496094 208.417969 112.628906 208.457031 112.714844 208.527344 C 112.808594 208.601562 112.855469 208.714844 112.855469 208.871094 L 112.855469 209.027344 C 112.855469 209.195312 112.808594 209.316406 112.714844 209.386719 C 112.628906 209.449219 112.488281 209.480469 112.292969 209.480469 Z M 112.292969 209.480469 " fill-opacity="1" fill-rule="nonzero"/><path fill="#000000" d="M 123.679688 210.089844 C 124.917969 210.089844 125.539062 210.835938 125.539062 212.324219 L 125.539062 215.121094 C 125.539062 215.269531 125.492188 215.386719 125.398438 215.480469 C 125.304688 215.574219 125.183594 215.621094 125.039062 215.621094 C 124.902344 215.621094 124.789062 215.574219 124.695312 215.480469 C 124.601562 215.386719 124.554688 215.269531 124.554688 215.121094 L 124.554688 212.324219 C 124.554688 211.929688 124.460938 211.613281 124.273438 211.371094 C 124.09375 211.121094 123.792969 210.996094 123.367188 210.996094 C 123.09375 210.996094 122.84375 211.058594 122.617188 211.183594 C 122.398438 211.300781 122.226562 211.460938 122.101562 211.667969 C 121.976562 211.867188 121.914062 212.085938 121.914062 212.324219 L 121.914062 215.121094 C 121.914062 215.269531 121.867188 215.386719 121.773438 215.480469 C 121.679688 215.574219 121.558594 215.621094 121.414062 215.621094 C 121.265625 215.621094 121.148438 215.574219 121.054688 215.480469 C 120.96875 215.386719 120.929688 215.269531 120.929688 215.121094 L 120.929688 210.714844 C 120.929688 210.582031 120.976562 210.464844 121.070312 210.371094 C 121.164062 210.269531 121.277344 210.214844 121.414062 210.214844 C 121.558594 210.214844 121.679688 210.269531 121.773438 210.371094 C 121.867188 210.464844 121.914062 210.582031 121.914062 210.714844 L 121.914062 211.074219 C 122.089844 210.804688 122.335938 210.574219 122.648438 210.386719 C 122.96875 210.191406 123.3125 210.089844 123.679688 210.089844 Z M 123.679688 210.089844 " fill-opacity="1" fill-rule="nonzero"/><path fill="#000000" d="M 136.0625 210.089844 C 136.601562 210.089844 137.054688 210.179688 137.421875 210.355469 C 137.785156 210.523438 137.96875 210.742188 137.96875 211.011719 C 137.96875 211.128906 137.925781 211.230469 137.84375 211.324219 C 137.769531 211.417969 137.675781 211.464844 137.5625 211.464844 C 137.46875 211.464844 137.394531 211.457031 137.34375 211.433594 C 137.300781 211.402344 137.234375 211.355469 137.140625 211.292969 C 137.097656 211.253906 137.03125 211.207031 136.9375 211.152344 C 136.863281 211.113281 136.75 211.074219 136.59375 211.042969 C 136.4375 211.011719 136.300781 210.996094 136.1875 210.996094 C 135.820312 210.996094 135.5 211.082031 135.21875 211.246094 C 134.945312 211.414062 134.734375 211.644531 134.578125 211.933594 C 134.429688 212.226562 134.359375 212.550781 134.359375 212.902344 C 134.359375 213.269531 134.429688 213.597656 134.578125 213.886719 C 134.734375 214.179688 134.941406 214.410156 135.203125 214.574219 C 135.472656 214.742188 135.78125 214.824219 136.125 214.824219 C 136.488281 214.824219 136.78125 214.769531 137 214.652344 C 137.039062 214.621094 137.101562 214.574219 137.1875 214.511719 C 137.257812 214.460938 137.320312 214.425781 137.375 214.402344 C 137.425781 214.371094 137.488281 214.355469 137.5625 214.355469 C 137.695312 214.355469 137.800781 214.398438 137.875 214.480469 C 137.957031 214.566406 138 214.679688 138 214.824219 C 138 214.960938 137.90625 215.101562 137.71875 215.246094 C 137.539062 215.382812 137.300781 215.496094 137 215.589844 C 136.695312 215.683594 136.367188 215.730469 136.015625 215.730469 C 135.492188 215.730469 135.03125 215.613281 134.625 215.371094 C 134.226562 215.121094 133.921875 214.785156 133.703125 214.355469 C 133.492188 213.917969 133.390625 213.433594 133.390625 212.902344 C 133.390625 212.382812 133.5 211.910156 133.71875 211.480469 C 133.945312 211.042969 134.265625 210.707031 134.671875 210.464844 C 135.078125 210.214844 135.539062 210.089844 136.0625 210.089844 Z M 136.0625 210.089844 " fill-opacity="1" fill-rule="nonzero"/><path fill="#000000" d="M 150.109375 210.152344 C 150.253906 210.152344 150.375 210.199219 150.46875 210.292969 C 150.5625 210.378906 150.609375 210.496094 150.609375 210.652344 L 150.609375 215.121094 C 150.609375 215.269531 150.5625 215.386719 150.46875 215.480469 C 150.375 215.574219 150.253906 215.621094 150.109375 215.621094 C 149.972656 215.621094 149.859375 215.574219 149.765625 215.480469 C 149.671875 215.386719 149.625 215.269531 149.625 215.121094 L 149.625 214.855469 C 149.445312 215.097656 149.203125 215.304688 148.890625 215.480469 C 148.585938 215.644531 148.253906 215.730469 147.890625 215.730469 C 147.429688 215.730469 147.007812 215.613281 146.625 215.371094 C 146.238281 215.121094 145.9375 214.785156 145.71875 214.355469 C 145.507812 213.929688 145.40625 213.445312 145.40625 212.902344 C 145.40625 212.371094 145.507812 211.894531 145.71875 211.464844 C 145.9375 211.027344 146.234375 210.691406 146.609375 210.449219 C 146.992188 210.210938 147.410156 210.089844 147.859375 210.089844 C 148.222656 210.089844 148.5625 210.167969 148.875 210.324219 C 149.195312 210.472656 149.445312 210.664062 149.625 210.902344 L 149.625 210.652344 C 149.625 210.507812 149.671875 210.386719 149.765625 210.292969 C 149.859375 210.199219 149.972656 210.152344 150.109375 210.152344 Z M 148.015625 214.824219 C 148.335938 214.824219 148.625 214.742188 148.875 214.574219 C 149.125 214.410156 149.316406 214.179688 149.453125 213.886719 C 149.597656 213.597656 149.671875 213.269531 149.671875 212.902344 C 149.671875 212.550781 149.597656 212.230469 149.453125 211.949219 C 149.316406 211.660156 149.125 211.429688 148.875 211.261719 C 148.625 211.085938 148.335938 210.996094 148.015625 210.996094 C 147.691406 210.996094 147.40625 211.082031 147.15625 211.246094 C 146.90625 211.414062 146.707031 211.644531 146.5625 211.933594 C 146.414062 212.214844 146.34375 212.539062 146.34375 212.902344 C 146.34375 213.269531 146.414062 213.597656 146.5625 213.886719 C 146.707031 214.179688 146.90625 214.410156 147.15625 214.574219 C 147.40625 214.742188 147.691406 214.824219 148.015625 214.824219 Z M 148.015625 214.824219 " fill-opacity="1" fill-rule="nonzero"/><path fill="#000000" d="M 161.464844 210.089844 C 161.640625 210.089844 161.792969 210.136719 161.917969 210.230469 C 162.050781 210.324219 162.121094 210.441406 162.121094 210.574219 C 162.121094 210.742188 162.078125 210.871094 161.996094 210.964844 C 161.910156 211.050781 161.808594 211.089844 161.683594 211.089844 C 161.621094 211.089844 161.527344 211.070312 161.402344 211.027344 C 161.253906 210.976562 161.140625 210.949219 161.058594 210.949219 C 160.847656 210.949219 160.640625 211.023438 160.433594 211.167969 C 160.234375 211.316406 160.074219 211.519531 159.949219 211.777344 C 159.824219 212.039062 159.761719 212.324219 159.761719 212.636719 L 159.761719 215.121094 C 159.761719 215.269531 159.714844 215.386719 159.621094 215.480469 C 159.527344 215.574219 159.40625 215.621094 159.261719 215.621094 C 159.113281 215.621094 158.996094 215.574219 158.902344 215.480469 C 158.816406 215.386719 158.777344 215.269531 158.777344 215.121094 L 158.777344 210.714844 C 158.777344 210.582031 158.824219 210.464844 158.917969 210.371094 C 159.011719 210.269531 159.125 210.214844 159.261719 210.214844 C 159.40625 210.214844 159.527344 210.269531 159.621094 210.371094 C 159.714844 210.464844 159.761719 210.582031 159.761719 210.714844 L 159.761719 211.230469 C 159.90625 210.898438 160.128906 210.628906 160.433594 210.417969 C 160.734375 210.210938 161.078125 210.101562 161.464844 210.089844 Z M 161.464844 210.089844 " fill-opacity="1" fill-rule="nonzero"/><path fill="#000000" d="M 174.488281 212.714844 C 174.488281 212.839844 174.433594 212.945312 174.332031 213.027344 C 174.238281 213.113281 174.128906 213.152344 174.003906 213.152344 L 170.363281 213.152344 C 170.414062 213.652344 170.605469 214.058594 170.941406 214.371094 C 171.273438 214.675781 171.679688 214.824219 172.160156 214.824219 C 172.492188 214.824219 172.761719 214.777344 172.972656 214.683594 C 173.179688 214.582031 173.363281 214.457031 173.519531 214.308594 C 173.621094 214.246094 173.722656 214.214844 173.816406 214.214844 C 173.929688 214.214844 174.023438 214.257812 174.097656 214.339844 C 174.179688 214.414062 174.222656 214.507812 174.222656 214.621094 C 174.222656 214.769531 174.152344 214.898438 174.019531 215.011719 C 173.820312 215.210938 173.554688 215.382812 173.222656 215.527344 C 172.898438 215.660156 172.566406 215.730469 172.222656 215.730469 C 171.660156 215.730469 171.164062 215.617188 170.738281 215.386719 C 170.320312 215.148438 169.996094 214.820312 169.769531 214.402344 C 169.539062 213.976562 169.425781 213.496094 169.425781 212.964844 C 169.425781 212.394531 169.539062 211.886719 169.769531 211.449219 C 170.007812 211.011719 170.320312 210.679688 170.707031 210.449219 C 171.101562 210.210938 171.523438 210.089844 171.972656 210.089844 C 172.410156 210.089844 172.820312 210.207031 173.207031 210.433594 C 173.589844 210.664062 173.898438 210.976562 174.128906 211.371094 C 174.367188 211.769531 174.488281 212.214844 174.488281 212.714844 Z M 171.972656 210.996094 C 171.585938 210.996094 171.253906 211.105469 170.972656 211.324219 C 170.691406 211.542969 170.503906 211.878906 170.410156 212.324219 L 173.457031 212.324219 L 173.457031 212.246094 C 173.425781 211.882812 173.257812 211.585938 172.957031 211.355469 C 172.664062 211.117188 172.335938 210.996094 171.972656 210.996094 Z M 171.972656 210.996094 " fill-opacity="1" fill-rule="nonzero"/><path fill="#000000" d="M 197.902344 214.761719 C 198.046875 214.898438 198.121094 215.039062 198.121094 215.183594 C 198.121094 215.289062 198.078125 215.386719 197.996094 215.480469 C 197.921875 215.574219 197.824219 215.621094 197.699219 215.621094 C 197.582031 215.621094 197.488281 215.597656 197.417969 215.542969 L 196.464844 214.761719 C 195.816406 215.410156 195.003906 215.730469 194.027344 215.730469 C 193.558594 215.730469 193.125 215.621094 192.730469 215.402344 C 192.34375 215.183594 192.042969 214.898438 191.824219 214.542969 C 191.605469 214.191406 191.496094 213.816406 191.496094 213.417969 C 191.496094 212.941406 191.621094 212.511719 191.871094 212.136719 C 192.128906 211.761719 192.511719 211.472656 193.011719 211.261719 C 192.875 211.066406 192.769531 210.878906 192.699219 210.699219 C 192.636719 210.511719 192.605469 210.324219 192.605469 210.136719 C 192.605469 209.804688 192.6875 209.496094 192.855469 209.214844 C 193.03125 208.933594 193.28125 208.710938 193.605469 208.542969 C 193.925781 208.378906 194.300781 208.292969 194.730469 208.292969 C 195.207031 208.292969 195.625 208.382812 195.980469 208.558594 C 196.34375 208.726562 196.589844 208.941406 196.714844 209.199219 C 196.765625 209.292969 196.792969 209.398438 196.792969 209.511719 C 196.792969 209.628906 196.75 209.722656 196.667969 209.792969 C 196.59375 209.867188 196.488281 209.902344 196.355469 209.902344 C 196.207031 209.902344 196.097656 209.851562 196.027344 209.746094 C 195.878906 209.539062 195.703125 209.386719 195.496094 209.292969 C 195.285156 209.191406 195.03125 209.136719 194.730469 209.136719 C 194.375 209.136719 194.105469 209.226562 193.917969 209.402344 C 193.730469 209.582031 193.636719 209.808594 193.636719 210.089844 C 193.636719 210.339844 193.722656 210.597656 193.902344 210.855469 C 194.078125 211.105469 194.332031 211.410156 194.667969 211.761719 L 194.855469 211.964844 C 195.25 212.414062 195.738281 212.894531 196.324219 213.402344 C 196.5 213.050781 196.621094 212.664062 196.683594 212.246094 C 196.722656 212.050781 196.863281 211.949219 197.105469 211.949219 C 197.238281 211.949219 197.347656 212.007812 197.433594 212.121094 C 197.527344 212.238281 197.5625 212.367188 197.542969 212.511719 C 197.449219 213.074219 197.277344 213.582031 197.027344 214.027344 C 197.308594 214.269531 197.597656 214.511719 197.902344 214.761719 Z M 194.230469 214.792969 C 194.832031 214.792969 195.347656 214.585938 195.777344 214.167969 C 195.046875 213.523438 194.425781 212.910156 193.917969 212.324219 C 193.824219 212.230469 193.707031 212.101562 193.574219 211.933594 C 193.1875 212.058594 192.910156 212.238281 192.746094 212.464844 C 192.578125 212.683594 192.496094 212.957031 192.496094 213.277344 C 192.496094 213.550781 192.558594 213.800781 192.683594 214.027344 C 192.808594 214.246094 193 214.429688 193.261719 214.574219 C 193.519531 214.722656 193.84375 214.792969 194.230469 214.792969 Z M 194.230469 214.792969 " fill-opacity="1" fill-rule="nonzero"/><path fill="#000000" d="M 221.59375 210.121094 C 222.789062 210.121094 223.390625 210.871094 223.390625 212.371094 L 223.390625 215.121094 C 223.390625 215.269531 223.34375 215.386719 223.25 215.480469 C 223.164062 215.574219 223.050781 215.621094 222.90625 215.621094 C 222.757812 215.621094 222.640625 215.574219 222.546875 215.480469 C 222.453125 215.386719 222.40625 215.269531 222.40625 215.121094 L 222.40625 212.386719 C 222.40625 211.480469 222.03125 211.027344 221.28125 211.027344 C 221.007812 211.027344 220.765625 211.089844 220.546875 211.214844 C 220.328125 211.332031 220.15625 211.492188 220.03125 211.699219 C 219.914062 211.910156 219.859375 212.136719 219.859375 212.386719 L 219.859375 215.121094 C 219.859375 215.269531 219.8125 215.386719 219.71875 215.480469 C 219.625 215.574219 219.507812 215.621094 219.375 215.621094 C 219.226562 215.621094 219.109375 215.574219 219.015625 215.480469 C 218.929688 215.386719 218.890625 215.269531 218.890625 215.121094 L 218.890625 212.371094 C 218.890625 211.964844 218.800781 211.644531 218.625 211.402344 C 218.457031 211.152344 218.171875 211.027344 217.765625 211.027344 C 217.359375 211.027344 217.023438 211.160156 216.765625 211.417969 C 216.503906 211.679688 216.375 211.996094 216.375 212.371094 L 216.375 215.121094 C 216.375 215.269531 216.328125 215.386719 216.234375 215.480469 C 216.140625 215.574219 216.019531 215.621094 215.875 215.621094 C 215.726562 215.621094 215.609375 215.574219 215.515625 215.480469 C 215.429688 215.386719 215.390625 215.269531 215.390625 215.121094 L 215.390625 210.714844 C 215.390625 210.582031 215.4375 210.464844 215.53125 210.371094 C 215.625 210.269531 215.738281 210.214844 215.875 210.214844 C 216.019531 210.214844 216.140625 210.269531 216.234375 210.371094 C 216.328125 210.464844 216.375 210.582031 216.375 210.714844 L 216.375 211.074219 C 216.550781 210.804688 216.785156 210.582031 217.078125 210.402344 C 217.378906 210.214844 217.707031 210.121094 218.0625 210.121094 C 218.914062 210.121094 219.46875 210.503906 219.71875 211.261719 C 219.875 210.972656 220.125 210.710938 220.46875 210.480469 C 220.820312 210.242188 221.195312 210.121094 221.59375 210.121094 Z M 221.59375 210.121094 " fill-opacity="1" fill-rule="nonzero"/><path fill="#000000" d="M 235.941406 210.152344 C 236.085938 210.152344 236.207031 210.199219 236.300781 210.292969 C 236.394531 210.378906 236.441406 210.496094 236.441406 210.652344 L 236.441406 215.121094 C 236.441406 215.269531 236.394531 215.386719 236.300781 215.480469 C 236.207031 215.574219 236.085938 215.621094 235.941406 215.621094 C 235.804688 215.621094 235.691406 215.574219 235.597656 215.480469 C 235.503906 215.386719 235.457031 215.269531 235.457031 215.121094 L 235.457031 214.855469 C 235.277344 215.097656 235.035156 215.304688 234.722656 215.480469 C 234.417969 215.644531 234.085938 215.730469 233.722656 215.730469 C 233.261719 215.730469 232.839844 215.613281 232.457031 215.371094 C 232.070312 215.121094 231.769531 214.785156 231.550781 214.355469 C 231.339844 213.929688 231.238281 213.445312 231.238281 212.902344 C 231.238281 212.371094 231.339844 211.894531 231.550781 211.464844 C 231.769531 211.027344 232.066406 210.691406 232.441406 210.449219 C 232.824219 210.210938 233.242188 210.089844 233.691406 210.089844 C 234.054688 210.089844 234.394531 210.167969 234.707031 210.324219 C 235.027344 210.472656 235.277344 210.664062 235.457031 210.902344 L 235.457031 210.652344 C 235.457031 210.507812 235.503906 210.386719 235.597656 210.292969 C 235.691406 210.199219 235.804688 210.152344 235.941406 210.152344 Z M 233.847656 214.824219 C 234.167969 214.824219 234.457031 214.742188 234.707031 214.574219 C 234.957031 214.410156 235.148438 214.179688 235.285156 213.886719 C 235.429688 213.597656 235.503906 213.269531 235.503906 212.902344 C 235.503906 212.550781 235.429688 212.230469 235.285156 211.949219 C 235.148438 211.660156 234.957031 211.429688 234.707031 211.261719 C 234.457031 211.085938 234.167969 210.996094 233.847656 210.996094 C 233.523438 210.996094 233.238281 211.082031 232.988281 211.246094 C 232.738281 211.414062 232.539062 211.644531 232.394531 211.933594 C 232.246094 212.214844 232.175781 212.539062 232.175781 212.902344 C 232.175781 213.269531 232.246094 213.597656 232.394531 213.886719 C 232.539062 214.179688 232.738281 214.410156 232.988281 214.574219 C 233.238281 214.742188 233.523438 214.824219 233.847656 214.824219 Z M 233.847656 214.824219 " fill-opacity="1" fill-rule="nonzero"/><path fill="#000000" d="M 249.019531 214.761719 C 249.121094 214.878906 249.175781 214.996094 249.175781 215.121094 C 249.175781 215.269531 249.121094 215.386719 249.019531 215.480469 C 248.914062 215.566406 248.804688 215.605469 248.691406 215.605469 C 248.535156 215.605469 248.410156 215.554688 248.316406 215.449219 L 246.285156 213.292969 L 245.675781 213.839844 L 245.675781 215.121094 C 245.675781 215.269531 245.628906 215.386719 245.535156 215.480469 C 245.441406 215.574219 245.324219 215.621094 245.191406 215.621094 C 245.042969 215.621094 244.925781 215.574219 244.832031 215.480469 C 244.738281 215.386719 244.691406 215.269531 244.691406 215.121094 L 244.691406 208.480469 C 244.691406 208.347656 244.738281 208.230469 244.832031 208.136719 C 244.925781 208.042969 245.042969 207.996094 245.191406 207.996094 C 245.324219 207.996094 245.441406 208.042969 245.535156 208.136719 C 245.628906 208.230469 245.675781 208.347656 245.675781 208.480469 L 245.675781 212.667969 L 248.207031 210.355469 C 248.320312 210.253906 248.441406 210.199219 248.566406 210.199219 C 248.679688 210.199219 248.785156 210.253906 248.878906 210.355469 C 248.972656 210.449219 249.019531 210.554688 249.019531 210.667969 C 249.019531 210.804688 248.957031 210.925781 248.832031 211.027344 L 247.050781 212.621094 Z M 249.019531 214.761719 " fill-opacity="1" fill-rule="nonzero"/><path fill="#000000" d="M 261.785156 212.714844 C 261.785156 212.839844 261.730469 212.945312 261.628906 213.027344 C 261.535156 213.113281 261.425781 213.152344 261.300781 213.152344 L 257.660156 213.152344 C 257.710938 213.652344 257.902344 214.058594 258.238281 214.371094 C 258.570312 214.675781 258.976562 214.824219 259.457031 214.824219 C 259.789062 214.824219 260.058594 214.777344 260.269531 214.683594 C 260.476562 214.582031 260.660156 214.457031 260.816406 214.308594 C 260.917969 214.246094 261.019531 214.214844 261.113281 214.214844 C 261.226562 214.214844 261.320312 214.257812 261.394531 214.339844 C 261.476562 214.414062 261.519531 214.507812 261.519531 214.621094 C 261.519531 214.769531 261.449219 214.898438 261.316406 215.011719 C 261.117188 215.210938 260.851562 215.382812 260.519531 215.527344 C 260.195312 215.660156 259.863281 215.730469 259.519531 215.730469 C 258.957031 215.730469 258.460938 215.617188 258.035156 215.386719 C 257.617188 215.148438 257.292969 214.820312 257.066406 214.402344 C 256.835938 213.976562 256.722656 213.496094 256.722656 212.964844 C 256.722656 212.394531 256.835938 211.886719 257.066406 211.449219 C 257.304688 211.011719 257.617188 210.679688 258.003906 210.449219 C 258.398438 210.210938 258.820312 210.089844 259.269531 210.089844 C 259.707031 210.089844 260.117188 210.207031 260.503906 210.433594 C 260.886719 210.664062 261.195312 210.976562 261.425781 211.371094 C 261.664062 211.769531 261.785156 212.214844 261.785156 212.714844 Z M 259.269531 210.996094 C 258.882812 210.996094 258.550781 211.105469 258.269531 211.324219 C 257.988281 211.542969 257.800781 211.878906 257.707031 212.324219 L 260.753906 212.324219 L 260.753906 212.246094 C 260.722656 211.882812 260.554688 211.585938 260.253906 211.355469 C 259.960938 211.117188 259.632812 210.996094 259.269531 210.996094 Z M 259.269531 210.996094 " fill-opacity="1" fill-rule="nonzero"/><path fill="#000000" d="M 273.65625 210.214844 C 273.800781 210.214844 273.921875 210.269531 274.015625 210.371094 C 274.109375 210.464844 274.15625 210.582031 274.15625 210.714844 L 274.15625 213.449219 C 274.15625 214.167969 273.957031 214.726562 273.5625 215.121094 C 273.164062 215.519531 272.609375 215.714844 271.890625 215.714844 C 271.171875 215.714844 270.613281 215.519531 270.21875 215.121094 C 269.832031 214.726562 269.640625 214.167969 269.640625 213.449219 L 269.640625 210.714844 C 269.640625 210.582031 269.6875 210.464844 269.78125 210.371094 C 269.875 210.269531 269.988281 210.214844 270.125 210.214844 C 270.269531 210.214844 270.390625 210.269531 270.484375 210.371094 C 270.578125 210.464844 270.625 210.582031 270.625 210.714844 L 270.625 213.449219 C 270.625 214.355469 271.046875 214.808594 271.890625 214.808594 C 272.304688 214.808594 272.625 214.695312 272.84375 214.464844 C 273.0625 214.238281 273.171875 213.898438 273.171875 213.449219 L 273.171875 210.714844 C 273.171875 210.582031 273.21875 210.464844 273.3125 210.371094 C 273.40625 210.269531 273.519531 210.214844 273.65625 210.214844 Z M 273.65625 210.214844 " fill-opacity="1" fill-rule="nonzero"/><path fill="#000000" d="M 285.039062 210.121094 C 285.507812 210.121094 285.929688 210.242188 286.304688 210.480469 C 286.6875 210.722656 286.992188 211.054688 287.210938 211.480469 C 287.429688 211.910156 287.539062 212.386719 287.539062 212.917969 C 287.539062 213.460938 287.429688 213.945312 287.210938 214.371094 C 286.992188 214.789062 286.6875 215.117188 286.304688 215.355469 C 285.929688 215.597656 285.515625 215.714844 285.070312 215.714844 C 284.703125 215.714844 284.367188 215.636719 284.054688 215.480469 C 283.75 215.324219 283.507812 215.132812 283.320312 214.902344 L 283.320312 217.183594 C 283.320312 217.328125 283.273438 217.449219 283.179688 217.542969 C 283.085938 217.636719 282.964844 217.683594 282.820312 217.683594 C 282.683594 217.683594 282.570312 217.636719 282.476562 217.542969 C 282.382812 217.449219 282.335938 217.328125 282.335938 217.183594 L 282.335938 210.699219 C 282.335938 210.554688 282.375 210.433594 282.460938 210.339844 C 282.554688 210.246094 282.671875 210.199219 282.820312 210.199219 C 282.964844 210.199219 283.085938 210.246094 283.179688 210.339844 C 283.273438 210.433594 283.320312 210.554688 283.320312 210.699219 L 283.320312 210.996094 C 283.476562 210.757812 283.710938 210.554688 284.023438 210.386719 C 284.34375 210.210938 284.683594 210.121094 285.039062 210.121094 Z M 284.929688 214.808594 C 285.25 214.808594 285.539062 214.726562 285.789062 214.558594 C 286.039062 214.394531 286.230469 214.167969 286.367188 213.886719 C 286.511719 213.597656 286.585938 213.273438 286.585938 212.917969 C 286.585938 212.566406 286.511719 212.246094 286.367188 211.964844 C 286.230469 211.675781 286.039062 211.445312 285.789062 211.277344 C 285.539062 211.113281 285.25 211.027344 284.929688 211.027344 C 284.605469 211.027344 284.3125 211.113281 284.054688 211.277344 C 283.804688 211.433594 283.605469 211.660156 283.460938 211.949219 C 283.324219 212.242188 283.257812 212.566406 283.257812 212.917969 C 283.257812 213.273438 283.324219 213.597656 283.460938 213.886719 C 283.605469 214.179688 283.804688 214.410156 284.054688 214.574219 C 284.3125 214.730469 284.605469 214.808594 284.929688 214.808594 Z M 284.929688 214.808594 " fill-opacity="1" fill-rule="nonzero"/><g clip-path="url(#ef90e1b46d)"><path fill="#f1efe7" d="M 193.976562 178.554688 L 188.324219 178.554688 C 178.644531 176.460938 176.492188 174.300781 174.398438 164.605469 L 174.398438 159.171875 L 173.683594 159.171875 L 173.683594 164.664062 C 171.59375 174.308594 169.429688 176.464844 159.773438 178.554688 L 155.648438 178.554688 L 155.648438 179.269531 L 159.773438 179.269531 C 169.429688 181.359375 171.59375 183.515625 173.683594 193.160156 L 173.683594 198.546875 L 174.398438 198.546875 L 174.398438 193.214844 C 176.492188 183.523438 178.644531 181.363281 188.324219 179.269531 L 193.976562 179.269531 Z M 193.976562 178.554688 " fill-opacity="1" fill-rule="nonzero"/></g><g clip-path="url(#8eef8c75fe)"><g clip-path="url(#3eab184888)"><path fill="#000000" d="M 177.449219 180.75 L 187.582031 180.75 L 187.582031 190.574219 L 177.449219 190.574219 Z M 177.449219 180.75 " fill-opacity="1" fill-rule="nonzero"/></g></g><g clip-path="url(#285ed8cbc7)"><g clip-path="url(#3c1cee8a19)"><path fill="#000000" d="M 174.449219 180.375 L 187.132812 180.375 L 187.132812 192.226562 L 174.449219 192.226562 Z M 174.449219 180.375 " fill-opacity="1" fill-rule="nonzero"/></g></g><g clip-path="url(#57a10ce29f)"><g clip-path="url(#6fef612023)"><path fill="#000000" d="M 174.824219 179.398438 L 188.527344 179.398438 L 188.527344 193.050781 L 174.824219 193.050781 Z M 174.824219 179.398438 " fill-opacity="1" fill-rule="nonzero"/></g></g><g clip-path="url(#ef346a2825)"><g clip-path="url(#8a7da403b0)"><path fill="#000000" d="M 175.050781 179.25 L 185.625 179.25 L 185.625 191.683594 L 175.050781 191.683594 Z M 175.050781 179.25 " fill-opacity="1" fill-rule="nonzero"/></g></g><g clip-path="url(#ac08c6d40e)"><g clip-path="url(#ae2f5c5779)"><path fill="#000000" d="M 174.601562 178.5 L 186 178.5 L 186 191.101562 L 174.601562 191.101562 Z M 174.601562 178.5 " fill-opacity="1" fill-rule="nonzero"/></g></g><g clip-path="url(#5989be65c8)"><g clip-path="url(#688609d8de)"><path fill="#000000" d="M 174.449219 179.625 L 185.476562 179.625 L 185.476562 192.589844 L 174.449219 192.589844 Z M 174.449219 179.625 " fill-opacity="1" fill-rule="nonzero"/></g></g><g clip-path="url(#182a3cfdaa)"><g clip-path="url(#9ff1e177e0)"><path fill="#000000" d="M 174.226562 181.199219 L 182.25 181.199219 L 182.25 191.105469 L 174.226562 191.105469 Z M 174.226562 181.199219 " fill-opacity="1" fill-rule="nonzero"/></g></g><g clip-path="url(#3f62701625)"><g clip-path="url(#972216e225)"><path fill="#000000" d="M 174.824219 180.898438 L 182.242188 180.898438 L 182.242188 188.175781 L 174.824219 188.175781 Z M 174.824219 180.898438 " fill-opacity="1" fill-rule="nonzero"/></g></g><g clip-path="url(#fb502396be)"><g clip-path="url(#59fbfc789f)"><path fill="#000000" d="M 172.800781 179.625 L 183.675781 179.625 L 183.675781 193.558594 L 172.800781 193.558594 Z M 172.800781 179.625 " fill-opacity="1" fill-rule="nonzero"/></g></g><g clip-path="url(#2dc1f3d25e)"><g clip-path="url(#7930e7d5a5)"><path fill="#000000" d="M 174.148438 167.773438 L 187.574219 167.773438 L 187.574219 180.226562 L 174.148438 180.226562 Z M 174.148438 167.773438 " fill-opacity="1" fill-rule="nonzero"/></g></g><g clip-path="url(#52fb05ce70)"><g clip-path="url(#e78c378310)"><path fill="#000000" d="M 174.898438 168.601562 L 188.992188 168.601562 L 188.992188 179.699219 L 174.898438 179.699219 Z M 174.898438 168.601562 " fill-opacity="1" fill-rule="nonzero"/></g></g></svg>